<svg xmlns="http://www.w3.org/2000/svg" viewBox="0 0 129 129">
  <circle cx="64.5" cy="64.5" r="64.5" fill="#878888"/>
  <path fill="#fbfdff" d="M59.5 72.3a14.8 14.8 0 0 1-2.3 8.2 15.7 15.7 0 0 1-6.9 5.7 25.6 25.6 0 0 1-10.7 2q-7.4 0-12.2-2.8a16.4 16.4 0 0 1-5.6-5.4 12.3 12.3 0 0 1-2-6.5 4.4 4.4 0 0 1 4.4-4.5 3.8 3.8 0 0 1 2.8 1 8.1 8.1 0 0 1 1.9 3 20.3 20.3 0 0 0 2 4 8.4 8.4 0 0 0 3.2 2.6 11.7 11.7 0 0 0 5.3 1 12 12 0 0 0 7.3-2 6.3 6.3 0 0 0 2.8-5.3 5.6 5.6 0 0 0-1.5-4 9.7 9.7 0 0 0-4-2.3c-1.6-.5-3.7-1.1-6.4-1.7a47.5 47.5 0 0 1-9-3 14.6 14.6 0 0 1-5.8-4.6 12 12 0 0 1-2.1-7.3 12.5 12.5 0 0 1 2.3-7.3 14.2 14.2 0 0 1 6.5-5 26.8 26.8 0 0 1 10-1.7 25 25 0 0 1 8 1.1 17 17 0 0 1 5.6 3 12.7 12.7 0 0 1 3.2 4 9.1 9.1 0 0 1 1 4.1 4.8 4.8 0 0 1-1.2 3.3 4.1 4.1 0 0 1-3.2 1.4 3.7 3.7 0 0 1-2.7-.8 11.8 11.8 0 0 1-2-2.9 13 13 0 0 0-3.2-4.4q-2-1.6-6.2-1.6a10.7 10.7 0 0 0-6.3 1.7 5 5 0 0 0-2.4 4.2 4.2 4.2 0 0 0 .8 2.6 6.9 6.9 0 0 0 2.2 1.9 14.6 14.6 0 0 0 3 1.2c1 .3 2.5.8 4.8 1.3a75.6 75.6 0 0 1 7.7 2.2 23.5 23.5 0 0 1 5.8 3 12 12 0 0 1 3.8 4.2 13.8 13.8 0 0 1 1.3 6.4Zm30 15H74.2c-2.2 0-3.8-.4-4.7-1.4S68 83.3 68 81V43.5c0-2.2.5-3.8 1.4-4.8s2.6-1.4 4.7-1.4h16.3a38.6 38.6 0 0 1 6.2.4 13.4 13.4 0 0 1 4.7 1.7 12.4 12.4 0 0 1 3.1 2.7 11.8 11.8 0 0 1 2.8 7.7q0 7.6-7.5 11 10 3.2 9.9 12.3a13.7 13.7 0 0 1-2.2 7.5 12.9 12.9 0 0 1-5.8 5 20.5 20.5 0 0 1-5.2 1.4 52.3 52.3 0 0 1-7 .4ZM78.2 45v13h9.3a18.6 18.6 0 0 0 5.9-.8 5.6 5.6 0 0 0 3.1-2.7 6.1 6.1 0 0 0 .9-3.2q0-3.8-2.7-5t-8.2-1.3ZM88.8 65H78.2v14.6h11q10.2 0 10.2-7.4c0-2.5-.9-4.4-2.7-5.5s-4.4-1.7-8-1.7Z"/>
</svg>